<?xml version="1.0" encoding="UTF-8" standalone="no"?><!DOCTYPE svg PUBLIC "-//W3C//DTD SVG 1.1//EN" "http://www.w3.org/Graphics/SVG/1.1/DTD/svg11.dtd"><!-- Generated by graphviz version 2.40.1 (20161225.0304)
 --><!-- Title: G Pages: 1 --><svg xmlns="http://www.w3.org/2000/svg" xmlns:xlink="http://www.w3.org/1999/xlink" width="854pt" height="611pt" viewBox="0.00 0.00 854.00 611.20">
<g id="graph0" class="graph" transform="scale(1 1) rotate(0) translate(4 607.2)">
<title>G</title>
<polygon fill="#ffffff" stroke="transparent" points="-4,4 -4,-607.2 850,-607.2 850,4 -4,4"/>
<g id="clust1" class="cluster">
<title>cluster_files</title>
<polygon fill="none" stroke="#000000" points="8,-138 8,-595.2 838,-595.2 838,-138 8,-138"/>
<text text-anchor="middle" x="423" y="-578.6" font-family="Times,serif" font-size="14.00" fill="#000000">Files</text>
</g>
<!-- readFromFile1 -->
<g id="node1" class="node">
<title>readFromFile1</title>
<ellipse fill="none" stroke="#000000" cx="735" cy="-544.4" rx="63.6987" ry="18"/>
<text text-anchor="middle" x="735" y="-540.2" font-family="Times,serif" font-size="14.00" fill="#000000">readFromFile</text>
</g>
<!-- parseToArray1 -->
<g id="node2" class="node">
<title>parseToArray1</title>
<ellipse fill="none" stroke="#000000" cx="735" cy="-417.6" rx="64.806" ry="18"/>
<text text-anchor="middle" x="735" y="-413.4" font-family="Times,serif" font-size="14.00" fill="#000000">parseToArray</text>
</g>
<!-- readFromFile1&#45;&gt;parseToArray1 -->
<g id="edge1" class="edge">
<title>readFromFile1-&gt;parseToArray1</title>
<path fill="none" stroke="#000000" d="M735,-526.2327C735,-505.2352 735,-470.4261 735,-445.879"/>
<polygon fill="#000000" stroke="#000000" points="738.5001,-445.7336 735,-435.7336 731.5001,-445.7337 738.5001,-445.7336"/>
<text text-anchor="middle" x="768.8261" y="-476.8" font-family="Times,serif" font-size="14.00" fill="#000000">textChannel</text>
</g>
<!-- extractWindDirection1 -->
<g id="node3" class="node">
<title>extractWindDirection1</title>
<ellipse fill="none" stroke="#000000" cx="735" cy="-290.8" rx="95.4617" ry="18"/>
<text text-anchor="middle" x="735" y="-286.6" font-family="Times,serif" font-size="14.00" fill="#000000">extractWindDirection</text>
</g>
<!-- parseToArray1&#45;&gt;extractWindDirection1 -->
<g id="edge2" class="edge">
<title>parseToArray1-&gt;extractWindDirection1</title>
<path fill="none" stroke="#000000" d="M735,-399.4327C735,-378.4352 735,-343.6261 735,-319.079"/>
<polygon fill="#000000" stroke="#000000" points="738.5001,-318.9336 735,-308.9336 731.5001,-318.9337 738.5001,-318.9336"/>
<text text-anchor="middle" x="774.2637" y="-350" font-family="Times,serif" font-size="14.00" fill="#000000">metarChannel</text>
</g>
<!-- windsChannel -->
<g id="node4" class="node">
<title>windsChannel</title>
<polygon fill="none" stroke="#000000" points="477.8906,-182 368.1094,-182 329.012,-146 516.988,-146 477.8906,-182"/>
<text text-anchor="middle" x="423" y="-159.8" font-family="Times,serif" font-size="14.00" fill="#000000">windsChannel</text>
</g>
<!-- extractWindDirection1&#45;&gt;windsChannel -->
<g id="edge3" class="edge">
<title>extractWindDirection1-&gt;windsChannel</title>
<path fill="none" stroke="#000000" d="M696.4059,-274.2627C661.8239,-259.5241 609.6624,-237.4887 564,-219 536.3572,-207.8074 505.5098,-195.7283 479.733,-185.7489"/>
<polygon fill="#000000" stroke="#000000" points="480.7087,-182.3737 470.1193,-182.0332 478.1851,-188.903 480.7087,-182.3737"/>
<text text-anchor="middle" x="643.0491" y="-223.2" font-family="Times,serif" font-size="14.00" fill="#000000">windsChannel</text>
</g>
<!-- mineWindDistribution -->
<g id="node14" class="node">
<title>mineWindDistribution</title>
<ellipse fill="none" stroke="#000000" cx="423" cy="-91" rx="98.4545" ry="18"/>
<text text-anchor="middle" x="423" y="-86.8" font-family="Times,serif" font-size="14.00" fill="#000000">mineWindDistribution</text>
</g>
<!-- windsChannel&#45;&gt;mineWindDistribution -->
<g id="edge13" class="edge">
<title>windsChannel-&gt;mineWindDistribution</title>
<path fill="none" stroke="#000000" d="M423,-145.9551C423,-137.8828 423,-128.1764 423,-119.1817"/>
<polygon fill="#000000" stroke="#000000" points="426.5001,-119.0903 423,-109.0904 419.5001,-119.0904 426.5001,-119.0903"/>
</g>
<!-- readFromFile2 -->
<g id="node5" class="node">
<title>readFromFile2</title>
<ellipse fill="none" stroke="#000000" cx="527" cy="-544.4" rx="63.6987" ry="18"/>
<text text-anchor="middle" x="527" y="-540.2" font-family="Times,serif" font-size="14.00" fill="#000000">readFromFile</text>
</g>
<!-- parseToArray2 -->
<g id="node6" class="node">
<title>parseToArray2</title>
<ellipse fill="none" stroke="#000000" cx="527" cy="-417.6" rx="64.806" ry="18"/>
<text text-anchor="middle" x="527" y="-413.4" font-family="Times,serif" font-size="14.00" fill="#000000">parseToArray</text>
</g>
<!-- readFromFile2&#45;&gt;parseToArray2 -->
<g id="edge4" class="edge">
<title>readFromFile2-&gt;parseToArray2</title>
<path fill="none" stroke="#000000" d="M527,-526.2327C527,-505.2352 527,-470.4261 527,-445.879"/>
<polygon fill="#000000" stroke="#000000" points="530.5001,-445.7336 527,-435.7336 523.5001,-445.7337 530.5001,-445.7336"/>
<text text-anchor="middle" x="560.8261" y="-476.8" font-family="Times,serif" font-size="14.00" fill="#000000">textChannel</text>
</g>
<!-- extractWindDirection2 -->
<g id="node7" class="node">
<title>extractWindDirection2</title>
<ellipse fill="none" stroke="#000000" cx="527" cy="-290.8" rx="95.4617" ry="18"/>
<text text-anchor="middle" x="527" y="-286.6" font-family="Times,serif" font-size="14.00" fill="#000000">extractWindDirection</text>
</g>
<!-- parseToArray2&#45;&gt;extractWindDirection2 -->
<g id="edge5" class="edge">
<title>parseToArray2-&gt;extractWindDirection2</title>
<path fill="none" stroke="#000000" d="M527,-399.4327C527,-378.4352 527,-343.6261 527,-319.079"/>
<polygon fill="#000000" stroke="#000000" points="530.5001,-318.9336 527,-308.9336 523.5001,-318.9337 530.5001,-318.9336"/>
<text text-anchor="middle" x="566.2637" y="-350" font-family="Times,serif" font-size="14.00" fill="#000000">metarChannel</text>
</g>
<!-- extractWindDirection2&#45;&gt;windsChannel -->
<g id="edge6" class="edge">
<title>extractWindDirection2-&gt;windsChannel</title>
<path fill="none" stroke="#000000" d="M512.3199,-272.9016C494.6126,-251.3123 464.7024,-214.8449 444.4199,-190.1158"/>
<polygon fill="#000000" stroke="#000000" points="446.9901,-187.7303 437.9422,-182.2179 441.5777,-192.1695 446.9901,-187.7303"/>
<text text-anchor="middle" x="520.0491" y="-223.2" font-family="Times,serif" font-size="14.00" fill="#000000">windsChannel</text>
</g>
<!-- readFromFile3 -->
<g id="node8" class="node">
<title>readFromFile3</title>
<ellipse fill="none" stroke="#000000" cx="319" cy="-544.4" rx="63.6987" ry="18"/>
<text text-anchor="middle" x="319" y="-540.2" font-family="Times,serif" font-size="14.00" fill="#000000">readFromFile</text>
</g>
<!-- parseToArray3 -->
<g id="node9" class="node">
<title>parseToArray3</title>
<ellipse fill="none" stroke="#000000" cx="319" cy="-417.6" rx="64.806" ry="18"/>
<text text-anchor="middle" x="319" y="-413.4" font-family="Times,serif" font-size="14.00" fill="#000000">parseToArray</text>
</g>
<!-- readFromFile3&#45;&gt;parseToArray3 -->
<g id="edge7" class="edge">
<title>readFromFile3-&gt;parseToArray3</title>
<path fill="none" stroke="#000000" d="M319,-526.2327C319,-505.2352 319,-470.4261 319,-445.879"/>
<polygon fill="#000000" stroke="#000000" points="322.5001,-445.7336 319,-435.7336 315.5001,-445.7337 322.5001,-445.7336"/>
<text text-anchor="middle" x="352.8261" y="-476.8" font-family="Times,serif" font-size="14.00" fill="#000000">textChannel</text>
</g>
<!-- extractWindDirection3 -->
<g id="node10" class="node">
<title>extractWindDirection3</title>
<ellipse fill="none" stroke="#000000" cx="319" cy="-290.8" rx="95.4617" ry="18"/>
<text text-anchor="middle" x="319" y="-286.6" font-family="Times,serif" font-size="14.00" fill="#000000">extractWindDirection</text>
</g>
<!-- parseToArray3&#45;&gt;extractWindDirection3 -->
<g id="edge8" class="edge">
<title>parseToArray3-&gt;extractWindDirection3</title>
<path fill="none" stroke="#000000" d="M319,-399.4327C319,-378.4352 319,-343.6261 319,-319.079"/>
<polygon fill="#000000" stroke="#000000" points="322.5001,-318.9336 319,-308.9336 315.5001,-318.9337 322.5001,-318.9336"/>
<text text-anchor="middle" x="358.2637" y="-350" font-family="Times,serif" font-size="14.00" fill="#000000">metarChannel</text>
</g>
<!-- extractWindDirection3&#45;&gt;windsChannel -->
<g id="edge9" class="edge">
<title>extractWindDirection3-&gt;windsChannel</title>
<path fill="none" stroke="#000000" d="M333.6801,-272.9016C351.3874,-251.3123 381.2976,-214.8449 401.5801,-190.1158"/>
<polygon fill="#000000" stroke="#000000" points="404.4223,-192.1695 408.0578,-182.2179 399.0099,-187.7303 404.4223,-192.1695"/>
<text text-anchor="middle" x="416.0491" y="-223.2" font-family="Times,serif" font-size="14.00" fill="#000000">windsChannel</text>
</g>
<!-- readFromFile4 -->
<g id="node11" class="node">
<title>readFromFile4</title>
<ellipse fill="none" stroke="#000000" cx="111" cy="-544.4" rx="63.6987" ry="18"/>
<text text-anchor="middle" x="111" y="-540.2" font-family="Times,serif" font-size="14.00" fill="#000000">readFromFile</text>
</g>
<!-- parseToArray4 -->
<g id="node12" class="node">
<title>parseToArray4</title>
<ellipse fill="none" stroke="#000000" cx="111" cy="-417.6" rx="64.806" ry="18"/>
<text text-anchor="middle" x="111" y="-413.4" font-family="Times,serif" font-size="14.00" fill="#000000">parseToArray</text>
</g>
<!-- readFromFile4&#45;&gt;parseToArray4 -->
<g id="edge10" class="edge">
<title>readFromFile4-&gt;parseToArray4</title>
<path fill="none" stroke="#000000" d="M111,-526.2327C111,-505.2352 111,-470.4261 111,-445.879"/>
<polygon fill="#000000" stroke="#000000" points="114.5001,-445.7336 111,-435.7336 107.5001,-445.7337 114.5001,-445.7336"/>
<text text-anchor="middle" x="144.8261" y="-476.8" font-family="Times,serif" font-size="14.00" fill="#000000">textChannel</text>
</g>
<!-- extractWindDirection4 -->
<g id="node13" class="node">
<title>extractWindDirection4</title>
<ellipse fill="none" stroke="#000000" cx="111" cy="-290.8" rx="95.4617" ry="18"/>
<text text-anchor="middle" x="111" y="-286.6" font-family="Times,serif" font-size="14.00" fill="#000000">extractWindDirection</text>
</g>
<!-- parseToArray4&#45;&gt;extractWindDirection4 -->
<g id="edge11" class="edge">
<title>parseToArray4-&gt;extractWindDirection4</title>
<path fill="none" stroke="#000000" d="M111,-399.4327C111,-378.4352 111,-343.6261 111,-319.079"/>
<polygon fill="#000000" stroke="#000000" points="114.5001,-318.9336 111,-308.9336 107.5001,-318.9337 114.5001,-318.9336"/>
<text text-anchor="middle" x="150.2637" y="-350" font-family="Times,serif" font-size="14.00" fill="#000000">metarChannel</text>
</g>
<!-- extractWindDirection4&#45;&gt;windsChannel -->
<g id="edge12" class="edge">
<title>extractWindDirection4-&gt;windsChannel</title>
<path fill="none" stroke="#000000" d="M149.3235,-274.2102C183.6683,-259.4371 235.4857,-237.3807 280.9018,-219 308.6246,-207.7801 339.5752,-195.7433 365.4957,-185.7994"/>
<polygon fill="#000000" stroke="#000000" points="367.079,-188.9411 375.1665,-182.0969 364.5761,-182.4038 367.079,-188.9411"/>
<text text-anchor="middle" x="320.0491" y="-223.2" font-family="Times,serif" font-size="14.00" fill="#000000">windsChannel</text>
</g>
<!-- ResultsChannel -->
<g id="node15" class="node">
<title>ResultsChannel</title>
<polygon fill="none" stroke="#000000" points="531.6939,-36 358.7863,-36 314.3061,0 487.2137,0 531.6939,-36"/>
<text text-anchor="middle" x="423" y="-13.8" font-family="Times,serif" font-size="14.00" fill="#000000">Results Channel</text>
</g>
<!-- mineWindDistribution&#45;&gt;ResultsChannel -->
<g id="edge14" class="edge">
<title>mineWindDistribution-&gt;ResultsChannel</title>
<path fill="none" stroke="#000000" d="M423,-72.9551C423,-64.8828 423,-55.1764 423,-46.1817"/>
<polygon fill="#000000" stroke="#000000" points="426.5001,-46.0903 423,-36.0904 419.5001,-46.0904 426.5001,-46.0903"/>
</g>
</g>
</svg>